<?xml version="1.0" standalone="no"?>
<!DOCTYPE svg PUBLIC "-//W3C//DTD SVG 20010904//EN"
 "http://www.w3.org/TR/2001/REC-SVG-20010904/DTD/svg10.dtd">
<svg version="1.0" xmlns="http://www.w3.org/2000/svg"
 width="1136.000000pt" height="1136.000000pt" viewBox="0 0 1136.000000 1136.000000"
 preserveAspectRatio="xMidYMid meet">
<metadata>
Created by potrace 1.11, written by Peter Selinger 2001-2013
</metadata>
<g transform="translate(0.000000,1136.000000) scale(0.100000,-0.100000)"
fill="#000000" stroke="none">
<path d="M5560 10409 c-98 -12 -132 -19 -175 -38 -38 -17 -42 -22 -55 -77 -7
-32 -15 -65 -16 -73 -14 -75 -50 -206 -60 -216 -10 -10 -66 -27 -164 -50 -8
-2 -78 -22 -155 -44 -224 -63 -231 -67 -193 -116 31 -40 167 -101 363 -162 42
-13 59 -23 57 -33 -2 -8 -5 -23 -7 -32 -28 -142 -103 -364 -157 -465 -73 -139
-120 -201 -182 -244 -140 -97 -202 -183 -193 -272 2 -28 -1 -71 -7 -96 -14
-56 -13 -85 4 -135 11 -33 10 -41 -2 -50 -264 -197 -325 -253 -369 -341 -60
-123 -37 -291 59 -413 27 -34 30 -46 35 -140 6 -107 15 -146 51 -222 21 -46
108 -140 183 -199 40 -32 41 -33 29 -64 -7 -18 -17 -41 -21 -52 -4 -11 -10
-29 -12 -40 -2 -10 -7 -22 -12 -25 -5 -3 -17 -25 -27 -50 -10 -25 -21 -47 -24
-50 -4 -3 -15 -23 -25 -45 -10 -22 -19 -41 -20 -43 -1 -1 -15 2 -31 9 -58 22
-65 20 -81 -19 -9 -20 -17 -55 -19 -77 -6 -57 -11 -81 -22 -102 -18 -33 -4
-96 27 -124 l29 -27 -35 -78 c-45 -103 -76 -166 -88 -182 -23 -31 -93 -100
-132 -130 -37 -29 -135 -161 -132 -179 0 -3 -6 -10 -14 -15 -14 -8 -16 -63 -3
-133 1 -11 0 -32 -5 -47 -5 -20 -4 -28 5 -28 6 0 17 -13 23 -30 12 -31 31 -37
64 -20 14 8 25 7 42 -4 20 -14 26 -14 55 4 18 11 41 20 52 20 10 0 25 7 33 15
8 8 17 11 21 8 3 -4 6 1 6 9 0 9 12 18 29 21 34 7 50 44 41 97 -7 39 1 71 37
148 13 29 21 57 18 62 -3 6 -2 10 2 10 5 0 8 29 7 65 -2 62 1 70 42 133 24 37
48 72 54 79 5 7 10 17 10 23 0 5 5 10 11 10 5 0 7 5 4 10 -3 6 -2 10 4 10 5 0
13 9 16 21 5 16 12 19 32 14 82 -20 78 -22 146 49 36 36 63 66 61 66 -2 0 5
10 15 23 11 12 29 33 40 46 l21 24 -21 18 c-11 10 -18 22 -15 27 11 18 61 20
88 4 l27 -15 -35 -64 c-19 -35 -34 -70 -34 -78 0 -8 -4 -15 -9 -15 -5 0 -12
-13 -16 -30 -4 -16 -11 -30 -16 -30 -5 0 -8 -3 -7 -7 2 -10 -20 -59 -89 -203
-31 -63 -56 -121 -56 -127 0 -7 -4 -13 -8 -13 -8 0 -43 -81 -41 -92 1 -5 -3
-8 -9 -8 -5 0 -8 -4 -5 -9 4 -5 3 -11 -1 -13 -10 -4 -63 -111 -63 -126 0 -6
-5 -12 -11 -14 -5 -2 -12 -10 -13 -18 -7 -30 -31 -80 -38 -80 -4 0 -8 -6 -8
-12 0 -7 -13 -39 -29 -70 -16 -32 -27 -58 -23 -58 4 0 2 -4 -3 -8 -12 -8 -135
-257 -135 -272 0 -6 -4 -10 -10 -10 -5 0 -10 -9 -10 -19 0 -11 -6 -26 -13 -33
-7 -7 -14 -17 -15 -21 0 -4 -28 -64 -61 -132 -34 -69 -60 -126 -59 -127 2 -2
-7 -16 -18 -33 -12 -16 -25 -40 -28 -52 -4 -13 -11 -23 -15 -23 -4 0 -7 -10
-8 -22 -1 -11 -8 -25 -15 -29 -7 -5 -9 -9 -4 -9 5 0 1 -9 -10 -21 -10 -12 -18
-23 -17 -25 4 -5 -30 -78 -39 -84 -3 -3 -10 -18 -13 -33 -4 -15 -11 -27 -16
-27 -5 0 -9 -9 -9 -19 0 -11 -5 -23 -10 -26 -8 -5 -38 -63 -45 -85 0 -3 -14
-30 -30 -60 -16 -30 -28 -58 -27 -62 1 -5 -3 -8 -8 -8 -6 0 -10 -5 -10 -11 0
-6 -9 -24 -21 -40 -11 -16 -18 -29 -15 -29 3 0 -7 -24 -24 -54 -34 -64 -93
-179 -96 -186 -10 -35 -28 -70 -36 -70 -5 0 -6 -5 -3 -10 3 -6 1 -10 -6 -10
-7 0 -9 -3 -6 -7 4 -3 0 -17 -8 -30 -9 -13 -12 -23 -8 -23 3 0 -4 -11 -17 -25
-13 -14 -19 -25 -14 -25 5 0 4 -4 -2 -8 -6 -4 -31 -38 -55 -77 -24 -38 -47
-72 -51 -73 -4 -2 -8 -8 -8 -13 0 -12 -71 -122 -84 -131 -7 -5 -7 -8 -1 -8 6
0 6 -3 -1 -8 -6 -4 -21 -26 -34 -49 -13 -24 -28 -43 -32 -43 -5 0 -7 -4 -3 -9
3 -5 1 -12 -5 -16 -25 -15 -85 -142 -86 -183 -1 -23 1 -42 5 -42 3 0 7 -12 7
-27 3 -51 8 -73 18 -73 5 0 6 -3 3 -7 -4 -3 0 -17 9 -31 15 -22 14 -25 -5 -43
-11 -10 -23 -19 -27 -19 -3 0 -19 -9 -34 -20 -24 -17 -27 -24 -21 -52 4 -18 8
-35 9 -38 6 -32 36 -100 44 -100 5 0 8 -6 8 -13 0 -18 34 -49 43 -40 4 3 7 2
8 -3 5 -94 22 -133 75 -174 21 -16 44 -33 49 -38 6 -4 18 -11 28 -15 9 -3 17
-12 17 -18 0 -7 11 -2 25 11 23 22 25 22 32 4 4 -10 12 -24 17 -30 6 -6 18
-22 26 -34 8 -12 21 -28 28 -36 6 -7 12 -15 12 -19 0 -10 124 -127 163 -153
20 -13 37 -29 37 -35 0 -6 3 -8 6 -4 3 3 28 -12 56 -32 68 -52 125 -81 170
-87 30 -5 38 -3 38 10 0 9 4 16 9 16 5 0 13 9 16 20 9 28 22 25 61 -14 18 -18
35 -31 38 -29 3 3 11 -4 18 -16 7 -12 17 -21 23 -21 5 0 25 -14 43 -31 17 -16
32 -26 32 -22 0 4 4 3 8 -3 7 -11 86 -55 110 -61 25 -6 37 -10 54 -17 9 -4 25
-3 36 3 11 6 22 8 25 4 3 -3 9 6 13 21 6 26 22 33 39 17 6 -5 42 -19 82 -30
40 -12 75 -26 78 -31 4 -6 11 -8 16 -5 5 4 9 2 9 -2 0 -15 63 -77 90 -90 38
-18 89 -32 130 -37 14 -2 32 -6 42 -10 9 -4 31 -9 50 -11 18 -2 33 -4 33 -5 0
-1 20 -3 45 -4 52 -2 71 12 64 47 -6 34 11 43 41 23 13 -9 33 -16 43 -16 10 0
22 -3 26 -7 6 -7 16 -9 66 -18 14 -2 25 -4 25 -5 0 -4 59 -15 121 -23 47 -6
56 -14 43 -39 -6 -12 -13 -44 -15 -72 -2 -28 -6 -67 -10 -86 -4 -19 -8 -41
-10 -49 -2 -8 -6 -26 -10 -40 -4 -14 -8 -29 -8 -33 -1 -4 -10 -18 -21 -30 -11
-13 -21 -41 -22 -63 -5 -68 -16 -114 -49 -195 -25 -59 -19 -172 11 -231 9 -16
15 -31 15 -34 -1 -27 5 -35 38 -51 42 -20 142 -35 142 -21 0 5 6 7 13 4 20 -7
88 26 115 56 28 30 39 72 38 150 -1 31 2 57 6 57 4 0 8 12 10 28 3 28 2 28 68
17 32 -5 157 41 180 65 3 3 21 17 40 30 19 13 37 25 40 27 2 2 8 37 11 76 9
85 16 122 30 159 12 29 29 38 29 15 0 -7 9 -32 20 -55 11 -22 20 -46 20 -52 0
-14 28 -13 46 2 49 41 54 52 50 98 -2 25 -5 45 -6 45 -1 0 -3 32 -6 70 -2 39
-9 93 -16 120 -6 28 -11 57 -11 65 0 8 -4 21 -10 27 -7 10 -3 13 17 14 32 2
65 6 69 9 1 1 11 3 21 5 11 2 31 7 45 11 14 4 29 8 34 9 4 2 9 4 12 5 3 1 10
4 15 5 6 1 12 4 15 5 3 1 10 4 15 5 6 1 12 4 15 5 3 1 8 3 13 5 33 9 41 18 32
35 -19 35 -12 48 33 56 48 9 55 10 62 14 3 1 10 4 15 5 6 1 12 4 15 5 3 1 8 3
13 5 4 1 20 7 35 13 16 7 31 12 34 12 4 0 15 8 26 18 15 12 18 13 12 2 -7 -13
-5 -12 11 1 38 31 90 55 117 54 15 -1 27 2 27 8 0 5 6 5 13 -2 8 -6 17 -8 21
-4 14 14 48 9 60 -9 12 -16 66 -23 66 -8 0 10 94 34 140 35 26 1 51 5 58 9 7
4 12 2 12 -4 0 -6 5 -8 12 -4 7 4 30 9 53 10 22 1 40 2 40 4 0 1 14 3 30 5 62
7 150 33 196 58 27 14 33 28 31 74 0 19 4 33 11 34 68 6 86 8 112 13 17 2 31
5 33 7 1 1 5 2 10 3 59 14 112 31 112 38 0 4 7 8 15 8 17 0 162 75 186 96 9 8
18 12 21 9 3 -3 13 4 23 15 10 11 22 20 27 20 4 0 22 12 40 28 85 74 116 115
101 135 -26 32 -21 54 18 78 22 13 39 26 39 29 0 3 16 14 35 24 19 11 35 24
35 29 0 6 2 8 5 5 7 -6 41 23 151 128 46 44 86 78 89 76 3 -3 5 0 5 6 0 7 23
35 50 62 l50 50 0 475 0 475 -132 130 c-73 71 -135 130 -138 130 -3 0 -14 14
-25 30 -11 16 -23 30 -26 30 -3 0 -258 251 -566 558 -422 420 -572 576 -611
634 -29 42 -52 81 -52 86 0 6 -7 13 -16 16 -8 3 -13 10 -10 15 4 5 2 11 -2 13
-5 1 -33 39 -62 83 -29 44 -57 82 -62 83 -4 2 -8 8 -8 14 0 6 -13 27 -30 48
-16 21 -30 42 -30 48 0 6 -3 12 -7 14 -5 2 -28 32 -52 68 -25 36 -47 67 -50
70 -4 3 -12 17 -20 33 -8 15 -18 27 -23 27 -4 0 -8 6 -8 13 0 8 -9 22 -20 32
-11 10 -20 22 -20 27 0 5 -6 16 -12 23 -31 35 -38 45 -31 45 4 0 3 4 -4 8 -6
4 -26 30 -45 57 -71 105 -111 160 -120 163 -4 2 -8 10 -8 18 0 8 -4 14 -8 14
-4 0 -16 13 -25 30 l-18 30 42 -5 c24 -3 45 -8 47 -10 3 -2 13 0 22 5 12 7 29
5 52 -4 57 -23 134 -29 167 -12 21 12 37 13 58 6 15 -5 56 -11 91 -12 57 -4
64 -2 88 23 l25 26 -40 -1 c-26 0 -47 6 -62 19 -36 32 -62 102 -60 164 1 60
19 121 36 121 158 6 379 147 484 310 77 118 99 217 72 317 -14 52 -73 139
-127 186 -37 33 -175 107 -199 107 -5 0 -21 21 -35 48 -50 96 -150 238 -217
307 -6 7 -14 50 -17 97 -6 91 -35 199 -71 264 -18 32 -22 49 -16 75 25 113
-29 237 -167 388 -23 25 -64 91 -91 146 -51 103 -147 372 -137 382 3 4 36 7
74 9 157 5 270 27 273 52 0 4 2 15 4 24 4 24 -53 73 -247 215 -87 63 -158 116
-158 117 0 1 11 30 25 64 29 70 31 97 10 105 -14 6 -14 25 0 149 3 29 -2 44
-20 67 -61 72 -313 165 -532 196 -21 3 -49 8 -63 10 -87 16 -308 24 -390 14z
m-390 -1309 c0 -16 -4 -30 -10 -30 -11 0 -14 43 -3 53 11 12 13 8 13 -23z
m-39 -122 c-32 -108 -217 -376 -370 -536 -59 -61 -61 -63 -70 -40 -8 23 -7 65
4 128 10 53 63 124 190 255 63 66 141 152 173 192 49 62 59 70 71 58 12 -12
12 -21 2 -57z m1613 -129 c116 -104 142 -149 150 -263 l3 -39 -51 54 c-115
120 -191 238 -221 339 -7 23 -5 23 31 -11 22 -20 61 -56 88 -80z m-160 -153
c160 -152 255 -249 270 -278 16 -31 16 -36 1 -71 -17 -42 -15 -42 -75 10 -193
166 -276 282 -287 400 l-5 58 22 -35 c12 -19 45 -57 74 -84z m-1861 17 c-17
-21 -38 -54 -48 -73 -10 -19 -20 -30 -22 -23 -6 17 25 73 61 109 41 42 46 35
9 -13z m215 -204 c-18 -30 -36 -55 -40 -57 -4 -2 -8 -8 -8 -13 0 -7 -85 -134
-106 -158 -6 -7 -55 30 -61 45 -3 9 3 21 15 30 24 17 138 122 191 176 20 20
37 35 39 33 2 -1 -12 -27 -30 -56z m1987 -249 l14 -53 -30 29 c-31 30 -36 53
-17 72 15 15 17 13 33 -48z m-2255 12 c0 -4 16 -16 35 -26 19 -11 35 -22 35
-25 0 -3 -63 -88 -139 -189 -77 -102 -158 -222 -184 -272 -46 -90 -52 -93 -62
-26 -19 119 -5 214 41 288 26 40 105 123 203 211 50 45 71 56 71 39z m39 -285
c-47 -90 -86 -184 -95 -232 -25 -127 -19 -217 17 -303 12 -28 15 -41 7 -35
-168 131 -165 127 -161 158 10 79 58 202 122 313 19 34 154 201 159 197 1 -1
-21 -45 -49 -98z m2744 -514 c4 -7 13 -18 20 -25 7 -7 23 -31 36 -53 32 -54
36 -185 7 -260 -25 -63 -73 -141 -114 -181 -46 -46 -136 -94 -189 -100 -53 -6
-53 -5 20 69 59 59 131 177 156 255 23 69 30 182 17 242 -3 14 -8 39 -12 55
-3 17 -8 39 -11 50 -4 17 0 15 28 -10 19 -16 37 -35 42 -42z m-2908 -127 c61
-48 92 -86 125 -151 51 -105 42 -140 -21 -82 -75 69 -137 165 -164 256 -8 27
-2 25 60 -23z m2694 -243 c-13 -52 -64 -152 -95 -187 -14 -15 -26 -27 -27 -25
-1 2 -10 14 -20 25 -17 21 -17 22 10 52 15 16 53 62 83 101 30 39 55 71 56 71
2 0 -2 -17 -7 -37z m-1315 -5571 c-9 -33 -21 -27 -16 9 2 17 8 27 13 22 5 -5
6 -18 3 -31z m-39 -101 c-8 -16 -24 -68 -36 -117 -21 -83 -43 -134 -58 -134
-9 0 -2 140 9 174 6 16 10 43 10 61 0 40 0 40 49 42 l41 2 -15 -28z"/>
</g>
</svg>
