<?xml version="1.0" ?><!DOCTYPE svg  PUBLIC '-//W3C//DTD SVG 1.1//EN'  'http://www.w3.org/Graphics/SVG/1.1/DTD/svg11.dtd'><svg enable-background="new -0.8 -0.5 507 505" height="30px" version="1.1" viewBox="-0.8 -0.5 507 505" width="30px" xml:space="preserve" xmlns="http://www.w3.org/2000/svg" xmlns:xlink="http://www.w3.org/1999/xlink"><defs/><ellipse cx="270.3" cy="485.3" opacity="0.39" rx="202.5" ry="18.8"/><g><defs><path d="M379.5,402.2c9.7,23.7,19.3,47.3,24.1,60.6c4.7,13.3,4.5,16.3,5.9,17.7c1.4,1.4,4.3,1.3,7.7-1    c3.3-2.3,7-6.9,10-11.7c2.9-4.8,5.1-9.9,4.8-17.7c-0.3-7.8-3.2-18.2-6-27.3c-2.8-9.1-5.6-16.8-8.4-24.7    c-2.9-7.8-5.8-15.7-8.7-23.6" id="XMLID_1237_"/></defs><use fill="#FDE7D6" xlink:href="#XMLID_1237_"/><clipPath id="XMLID_1320_"><use xlink:href="#XMLID_1237_"/></clipPath><path clip-path="url(#XMLID_1320_)" d="M386.3,434.4c3.6,1.1,7.4-0.7,11-1.7c6.5-1.7,13.2-4.2,18.4-8.6c2.9-2.5,5.1-5.5,7.7-8.3   c0.6-0.6,1.1-1.2,1.7-1.8c0.6-0.6,0.9-1.8,1.7-1.8c2.8-0.1,3.4,4.7,4.2,7.4c1.2,3.8,2.7,7.6,3.9,11.4c2.1,6.6,2.3,13.8,2,20.8   c-0.3,9.4-1,19.9-6.6,27.3c-4.2,5.4-12.3,10.1-18.8,8.2c-6.3-1.9-9.8-9.4-12.1-15.6c-3.3-9-13.5-18.9-8.9-27.2"/><path clip-path="url(#XMLID_1320_)" d="M398.3,459.3c2.8-2.9,7.5-4.7,11.4-3.9c0.8,0.2,1.5,0.8,2.3,1.3   c0.8,0.4,1.4,1.2,2.3,1.3c0.9,0.1,1.8-0.6,2.6-1c0.8-0.4,1.5-0.9,2.2-1.4c3.2-2.7,6.6-5.2,9.5-8.3c0.6-0.6,1.1-1.2,1.7-1.8   c0.6-0.6,1.2-1.2,1.7-1.8c0.5-0.7,0.5-2.6,1.3-2.3c1,0.4,0.5,2,0.5,3.1c0,1-0.2,2.1-0.3,3.1c-0.1,1.3-0.2,2.7-0.3,4   c-0.1,1.3-0.3,2.7-0.3,4c-0.2,8.3-4.4,17.2-10.8,22.6c-3.8,3.1-9.9,3.2-14.6,1.8" fill="#9D745C"/><use fill="none" stroke="#904052" stroke-linejoin="round" stroke-width="5" xlink:href="#XMLID_1237_"/></g><g><defs><path d="M329.6,401.8c-10.7,23.2-21.3,46.5-27.8,59c-6.5,12.6-8.8,14.4-8.9,16.4c-0.1,2,2,4.1,6,4.9    c4,0.8,9.8,0.4,15.4-0.7c5.5-1.2,10.8-3,16.2-8.6c5.4-5.5,11.1-14.8,15.8-23s8.5-15.6,12.2-23c3.8-7.4,7.5-15,11.3-22.5" id="XMLID_1236_"/></defs><use fill="#FDE7D6" xlink:href="#XMLID_1236_"/><clipPath id="XMLID_1321_"><use xlink:href="#XMLID_1236_"/></clipPath><path clip-path="url(#XMLID_1321_)" d="M310.8,428.8c1.7,3.3,5.6,4.9,8.8,6.9c5.7,3.6,12.1,6.8,18.8,7.5c3.7,0.4,7.5,0,11.3,0   c0.8,0,1.7,0,2.5,0s1.9-0.6,2.5,0c2,2-1.1,5.7-2.5,8.2c-2,3.5-3.7,7.2-5.7,10.7c-3.4,6.1-8.6,11.1-13.8,15.7   c-7.1,6.2-15.2,12.9-24.5,13.8c-6.8,0.7-15.8-2-18.8-8.2c-2.9-5.9,0.2-13.6,3.1-19.5c4.3-8.5,4.5-22.8,13.8-25.1"/><path clip-path="url(#XMLID_1321_)" d="M300.8,454.5c4,0,8.5,2.2,10.7,5.7c0.5,0.7,0.4,1.7,0.6,2.5s0.1,1.8,0.6,2.5   c0.6,0.7,1.6,0.9,2.5,1.3c0.8,0.3,1.7,0.5,2.5,0.6c4.2,0.5,8.4,1.3,12.6,1.3c0.8,0,1.7,0,2.5,0s1.7,0.1,2.5,0   c0.9-0.1,2.2-1.4,2.5-0.6c0.3,1-1.1,1.8-1.9,2.5c-0.7,0.7-1.7,1.2-2.5,1.9c-1.1,0.8-2.1,1.7-3.1,2.5c-1,0.8-2.1,1.6-3.1,2.5   c-6.2,5.5-15.6,8.6-23.9,7.5c-4.9-0.6-9.1-5-11.3-9.4" fill="#9D745C"/><use fill="none" stroke="#904052" stroke-linejoin="round" stroke-width="5" xlink:href="#XMLID_1236_"/></g><g><defs><path d="M401.2,345.9l34.5,1.3c-3.8,10.3-7.5,20.5-14.9,29.4c-7.3,8.9-18.2,16.4-29.3,22.4    c-11.1,6-22.4,10.4-33.4,11.1c-11,0.7-21.7-2.2-29.6-5.9c-8-3.7-13.2-8.1-18.4-12.5l17.6-18.2l17.6-20.1l11.9-2.5l19.5-2.5    l20.1-1.9L401.2,345.9z" id="XMLID_1235_"/></defs><use fill="#3A689D" xlink:href="#XMLID_1235_"/><clipPath id="XMLID_1322_"><use xlink:href="#XMLID_1235_"/></clipPath><line clip-path="url(#XMLID_1322_)" fill="none" stroke="#000000" stroke-linejoin="round" stroke-width="2" x1="349.1" x2="327.8" y1="374.8" y2="415"/><line clip-path="url(#XMLID_1322_)" fill="none" stroke="#000000" stroke-linejoin="round" stroke-width="2" x1="364.2" x2="363.6" y1="364.1" y2="417.5"/><line clip-path="url(#XMLID_1322_)" fill="none" stroke="#000000" stroke-linejoin="round" stroke-width="2" x1="374.9" x2="396.2" y1="360.4" y2="401.8"/><line clip-path="url(#XMLID_1322_)" fill="none" stroke="#000000" stroke-linejoin="round" stroke-width="2" x1="384.3" x2="427.6" y1="352.8" y2="377.3"/><use fill="none" stroke="#000000" stroke-linejoin="round" stroke-width="5" xlink:href="#XMLID_1235_"/></g><path d="M305.7,329.9c5.2,11,9.9,22.2,13.9,33.7c1.1,3.2,2.7,6.2,3.7,9.3c0.8,2.4,2.2,7.9,2.1,7.3c-0.1-0.5,8.4,1.8,12.6,1.7  c4.4-0.1,9.3,0.4,13-2c0.9-0.6,1.2-1.8,1.5-2.8c0.2-0.9,0.1-1.9,0.1-2.8c-0.1-2.7,2.7-7.5,2.7-7.5l10.3,5.6c0,0,4.4-2.4,6.5-3.8  c6.2-4,13-7.1,18.8-11.7c3.4-2.6,6.7-5.5,10-8.2c2.1-1.7,4.4-6.9,4.4-6.9s-1.9-0.9-2.8-1.5c-0.8-0.5-1.5-1.1-2.2-1.7  c-1.9-1.8-3.3-4-4.9-6c-7.2-8.8-13.6-18.5-18.5-28.8"/><path d="M342.6,271.6c7,1.7,14.1,3.4,19.6,6.6c5.5,3.2,9.5,7.8,13.5,12.8c4,4.9,7.9,10.2,10,15.7c2,5.5,2.1,11.2,2.1,17  c-31.5,11.2-63,22.4-78.9,27.9c-15.8,5.5-15.9,5.2-16,5c-0.8-12.4-1.6-24.8-1.4-33.6c0.3-8.9,1.6-14.3,2.3-19.3  c0.7-5.1,0.8-9.9,3-14.3c2.2-4.5,6.5-8.6,11.9-11.1c5.5-2.6,12.1-3.6,18.7-4.7"/><path d="M316.5,307.1c2.2-6.5,1.4-17,6.8-19.5  c5.1-2.4,14.5,8,19.8,13.3" fill="#FFFFFF" stroke="#000000" stroke-linejoin="round" stroke-width="2"/><path d="M305,278.7c1.1-0.2,1.3,1.8,2.1,2.6  c3.6,3.5,8.2,7.5,13.2,7.1c7-0.6,7.2-12,11.2-17.8c0.6-0.9,1.8-1.4,2.9-1.4c1.5,0,2,3.4,3.4,3.8c4,1.1,3.3,20.1,1.9,27  c-1.6,8.1-0.9,16-2.5,24c-0.3,1.3-0.4,2.7-0.8,3.9c-0.5,1.3-1.4,2.3-1.9,3.6c-0.5,1.3,2,1.8,0.8,2.4c-3.2,1.5-2.5-3.9-4.4-6.9  c-4.2-6.6-10.4-14.1-14.6-20.7c-2.3-3.7-5.3-6.9-7.7-10.6c-0.6-0.9-0.9-1.9-1.4-2.9c-0.5-1-0.9-1.9-1.4-2.9c-0.5-1-0.9-1.9-1.4-2.9  c-0.5-1-1.4-1.8-1.4-2.9C303.2,282.2,303.1,279.1,305,278.7z" fill="#FFFFFF" stroke="#000000" stroke-linejoin="round" stroke-width="4"/><polyline fill="none" points="299.1,285.1 299.6,310.7 314,312.8   311.9,327.2 338.4,338.4 " stroke="#FFFFFF" stroke-linejoin="round" stroke-width="2"/><polyline fill="none" points="353.8,275.7 360.3,300.5 347.1,306.4   353,319.6 338.4,336.5 " stroke="#FFFFFF" stroke-linejoin="round" stroke-width="2"/><polygon fill="#389540" points="317.2,295.1 327.8,290.8 332.7,294.5 327.7,302 339.3,313.9 337.2,335.2 321.5,312.1 322.9,304.8   317.9,301.2 "/><path d="M305.8,264.3c1.1,5.4,7.3,23.1,11.3,21.2  c2.9-1.4,8.3-0.4,10.2-3c2-2.9,1.2-3.9,0.2-7.2c-1.8-5.5,5.3-12.1,2.9-17.3" fill="#FFFFFF" stroke="#000000" stroke-linejoin="round" stroke-width="9"/><path d="M364.1,343.2c1.1-3.8,7.4-3.1,10.8-5.1  c3.1-1.8,5.8-5.4,9.4-5.1c2.6,0.2,3.8,3.7,4.9,6s2.8,5.4,1.5,7.6c-1.7,3-5.1,4.7-8,6.6c-2.9,1.8-6.7,3.7-9.9,2.6  c-3.2-1.1-4.3-5.3-6-8.3C366,346.1,363.6,344.9,364.1,343.2z" fill="none" stroke="#FFFFFF" stroke-linejoin="round" stroke-width="2"/><path d="M269.9,442.3c14-10.1-0.6-60-15.3-109.9c41.3-31.5,82.7-63,77.4-79.5c-5.3-16.5-57.3-17.9-109.2-19.4  c-17.2-49.1-34.4-98.1-51.7-98.1c-17.3,0-34.8,48.9-52.2,97.9c-52,1.2-103.9,2.4-109.3,18.9c-5.4,16.5,35.8,48.2,77,79.9  c-14.9,49.8-29.8,99.6-15.8,109.8c14,10.2,56.9-19.1,99.8-48.5C213.1,422.9,255.9,452.5,269.9,442.3z" fill="#E6E400"/><path d="M264.6,435L264.6,435L264.6,435L264.6,435L264.6,435L264.6,435l0.1-0.1l0-0.1l0.1-0.1l0.1-0.1l0.1-0.1  l0.1-0.1l0.1-0.1l0.1-0.2l0.1-0.2l0.1-0.2l0.1-0.2l0.1-0.2l0.1-0.3l0.2-0.6l0.2-0.7l0.1-0.7l0.1-0.8l0.1-0.9l0.1-1l0.1-1l0-1.1  l0-1.1l0-1.2l0-1.3l-0.1-2.7l-0.2-2.9l-0.3-3.1l-0.4-3.2l-0.5-3.4l-0.6-3.5l-0.7-3.7l-0.8-3.8l-0.9-3.9l-0.9-4l-1-4.1l-1.1-4.2  l-1.1-4.3l-1.2-4.4l-2.5-8.9l-2.6-9.1l-2.7-9.2L246,335c-1.1-3.6,0.2-7.4,3.2-9.7l7.7-5.9l7.6-5.9l7.5-5.8l7.3-5.7l3.5-2.8l3.4-2.8  l3.3-2.8l3.2-2.7l3.1-2.7l3-2.6l2.9-2.6l2.7-2.5l2.6-2.5l2.4-2.4l2.3-2.3l2.1-2.3l1.9-2.2l1.7-2.1l0.8-1l0.7-1l0.7-0.9l0.6-0.9  l0.5-0.9l0.5-0.8l0.4-0.8l0.4-0.7l0.3-0.7l0.3-0.6l0.2-0.6l0.2-0.5l0.1-0.2l0-0.2l0-0.2l0-0.2l0-0.2l0-0.1l0-0.1l0-0.1v-0.1l0-0.1  l0-0.1l0,0l0,0l0,0l0,0l0,0l0,0l0,0l0,0l0,0l0,0l0,0l0,0l0-0.1l-0.1-0.1l-0.1-0.1l-0.1-0.1l-0.1-0.1l-0.1-0.1l-0.1-0.1l-0.1-0.1  l-0.2-0.1l-0.2-0.1l-0.2-0.2l-0.2-0.2l-0.5-0.3l-0.6-0.4l-0.7-0.4l-0.7-0.4l-0.8-0.4l-0.9-0.4l-1-0.4l-1-0.4l-1.1-0.4l-1.1-0.4  l-1.2-0.4l-2.6-0.7l-2.8-0.7l-3-0.6l-3.2-0.6l-3.4-0.5l-3.6-0.5l-3.7-0.5l-3.9-0.4l-4-0.4l-4.1-0.3l-4.2-0.3l-4.3-0.3l-4.4-0.3  l-4.5-0.2l-9.2-0.4l-9.5-0.3l-9.6-0.3l-9.7-0.3c-3.7-0.1-7-2.5-8.2-6l-3.2-9.2l-3.2-9.1l-3.2-8.9l-3.2-8.7l-1.6-4.2l-1.6-4.1l-1.6-4  l-1.6-3.9l-1.6-3.8l-1.6-3.7l-1.6-3.5l-1.6-3.4l-1.5-3.2l-1.5-3.1l-1.5-2.9l-1.5-2.7l-1.5-2.5l-1.4-2.3l-0.7-1l-0.7-1l-0.7-0.9  l-0.7-0.9l-0.7-0.8l-0.6-0.7l-0.6-0.7l-0.6-0.6l-0.6-0.5l-0.5-0.4l-0.5-0.4l-0.4-0.3l-0.2-0.1l-0.2-0.1l-0.2-0.1l-0.2-0.1l-0.1-0.1  l-0.1-0.1l-0.1,0l-0.1,0l-0.1,0l-0.1,0l-0.1,0l0,0l0,0l0,0l0,0h0h0l0,0l0,0l0,0l0,0l-0.1,0l-0.1,0l-0.1,0l-0.1,0l-0.1,0l-0.1,0.1  l-0.1,0.1l-0.2,0.1l-0.2,0.1l-0.2,0.1l-0.2,0.1l-0.2,0.1l-0.2,0.2l-0.5,0.4l-0.5,0.4l-0.6,0.5l-0.6,0.6l-0.6,0.7l-0.6,0.7l-0.7,0.8  l-0.7,0.9l-0.7,0.9l-0.7,1l-0.7,1l-1.5,2.3l-1.5,2.5l-1.5,2.7l-1.5,2.9l-1.6,3.1l-1.6,3.2l-1.6,3.4l-1.6,3.5l-1.6,3.7l-1.6,3.8  l-1.6,3.9l-1.6,4l-1.6,4.1l-1.6,4.2l-3.2,8.7l-3.3,8.9l-3.3,9.1l-3.3,9.2c-1.3,3.5-4.5,5.9-8.3,6l-9.7,0.2l-9.6,0.3l-9.5,0.3  l-9.2,0.4l-4.5,0.2l-4.4,0.2l-4.3,0.3l-4.2,0.3l-4.1,0.3l-4,0.4l-3.9,0.4l-3.7,0.4l-3.6,0.5l-3.4,0.5l-3.2,0.6l-3,0.6l-2.8,0.6  l-2.6,0.7l-1.2,0.4l-1.1,0.4l-1.1,0.4l-1,0.4l-1,0.4l-0.9,0.4l-0.8,0.4l-0.7,0.4l-0.7,0.4l-0.6,0.4l-0.5,0.3l-0.4,0.3l-0.2,0.1  l-0.2,0.1l-0.1,0.1l-0.1,0.1l-0.1,0.1l-0.1,0.1l-0.1,0.1l-0.1,0.1l-0.1,0.1l0,0.1l0,0l0,0l0,0l0,0l0,0l0,0l0,0l0,0l0,0l0,0l0,0  l0,0.1l0,0.1l0,0.1l0,0.1l0,0.1l0,0.1l0,0.2l0,0.2l0,0.2l0,0.2l0.1,0.2l0.1,0.2l0.1,0.3l0.2,0.6l0.3,0.6l0.3,0.7l0.4,0.7l0.4,0.8  l0.5,0.8l0.5,0.9l0.6,0.9l0.7,0.9l0.7,1l0.8,1l1.7,2.1l1.9,2.2l2.1,2.3l2.3,2.3l2.4,2.4l2.6,2.5l2.7,2.5l2.9,2.6l3,2.6l3.1,2.7  l3.2,2.7l3.3,2.8l3.4,2.8l3.5,2.8l7.2,5.8l7.5,5.8l7.6,5.9l7.7,5.9c3,2.3,4.2,6.1,3.1,9.7l-2.8,9.3l-2.7,9.2l-2.6,9.1l-2.5,8.9  l-1.2,4.4l-1.1,4.3L81,384l-1,4.1l-1,4l-0.9,3.9l-0.8,3.8l-0.7,3.7l-0.6,3.5l-0.6,3.4l-0.5,3.2l-0.4,3.1l-0.3,2.9l-0.2,2.7l0,1.3  l0,1.2l0,1.1l0,1.1l0.1,1l0.1,1l0.1,0.9l0.1,0.8l0.1,0.7l0.2,0.7l0.2,0.6l0.2,0.5l0.1,0.2l0.1,0.2l0.1,0.2l0.1,0.2l0.1,0.1l0.1,0.1  l0.1,0.1l0.1,0.1l0.1,0.1l0,0.1l0,0l0,0l0,0l0,0l0,0l0,0l0,0l0,0l0,0l0,0l0,0l0.1,0l0.1,0l0.1,0l0.1,0l0.1,0l0.1,0l0.2,0l0.2,0  l0.2,0l0.2,0l0.2,0l0.3,0l0.3,0l0.6,0l0.7-0.1l0.8-0.1l0.8-0.1l0.9-0.2l0.9-0.2l1-0.3l1-0.3l1.1-0.3L87,433l1.2-0.4l2.5-1l2.7-1.1  l2.8-1.3l2.9-1.4l3.1-1.6l3.2-1.7l3.3-1.8l3.4-1.9l3.4-2l3.5-2.1l3.6-2.2l3.7-2.3l3.7-2.4l3.8-2.5l7.7-5.1l7.9-5.3l8-5.4l8-5.5  c3.1-2.1,7.1-2.1,10.2,0l8,5.5l7.9,5.5l7.8,5.3l7.7,5.1l3.8,2.5l3.7,2.4l3.7,2.3l3.6,2.2l3.5,2.2l3.4,2.1l3.4,1.9l3.3,1.8l3.2,1.7  l3,1.6l2.9,1.4l2.8,1.3l2.7,1.1l2.5,1l1.2,0.4l1.1,0.4l1.1,0.3l1,0.3l1,0.3l0.9,0.2l0.9,0.2l0.8,0.1l0.7,0.1l0.7,0.1l0.6,0l0.5,0  l0.2,0l0.2,0l0.2,0l0.2,0l0.2,0l0.1,0l0.1,0l0.1,0l0.1,0l0.1,0l0.1,0L264.6,435L264.6,435L264.6,435L264.6,435L264.6,435l10.5,14.6  l-0.7,0.5l-0.7,0.4l-0.7,0.4l-0.7,0.4l-0.7,0.3l-0.7,0.3l-0.7,0.3l-0.7,0.2l-0.7,0.2l-0.7,0.2l-0.7,0.2l-0.7,0.1l-0.7,0.1l-0.7,0.1  l-0.7,0.1l-0.7,0l-1.5,0l-1.5-0.1l-1.4-0.1l-1.4-0.2l-1.4-0.2l-1.5-0.3l-1.5-0.3l-1.5-0.4l-1.5-0.4l-1.5-0.5l-1.5-0.5l-1.5-0.5  l-3.1-1.2l-3.2-1.4l-3.2-1.5l-3.3-1.6l-3.4-1.7l-3.4-1.9l-3.5-2l-3.6-2.1l-3.6-2.2l-3.7-2.3l-3.7-2.3l-3.8-2.4l-3.8-2.5l-3.9-2.5  l-7.8-5.2l-7.9-5.4l-8-5.5l-8-5.5l10.2,0l-8,5.5l-8,5.5l-8,5.4l-7.9,5.2l-3.9,2.5l-3.8,2.5l-3.8,2.4l-3.7,2.3l-3.7,2.2l-3.6,2.1  l-3.6,2l-3.5,1.9l-3.4,1.8l-3.4,1.7l-3.3,1.6l-3.2,1.5l-3.2,1.3l-3.1,1.2l-1.5,0.5l-1.5,0.5l-1.5,0.5l-1.5,0.4l-1.5,0.4l-1.5,0.3  l-1.5,0.3l-1.4,0.2l-1.4,0.2l-1.4,0.1l-1.5,0l-0.7,0l-0.7,0l-0.7,0l-0.7-0.1l-0.7-0.1l-0.7-0.1l-0.7-0.1l-0.7-0.2l-0.7-0.2l-0.7-0.2  l-0.7-0.2l-0.7-0.3l-0.7-0.3l-0.7-0.3l-0.7-0.4l-0.7-0.4l-0.7-0.4l-0.7-0.5l-0.6-0.5l-0.6-0.5l-0.6-0.5l-0.6-0.6l-0.5-0.6l-0.5-0.6  l-0.5-0.6l-0.4-0.6l-0.4-0.6l-0.4-0.6l-0.4-0.6l-0.3-0.7l-0.3-0.7l-0.3-0.7l-0.3-0.7l-0.3-0.7l-0.5-1.4l-0.4-1.4l-0.3-1.4l-0.3-1.4  l-0.2-1.5l-0.2-1.5l-0.1-1.5l-0.1-1.5l-0.1-1.5l0-1.6l0-1.6l0-1.6l0.2-3.3l0.3-3.4l0.4-3.5l0.5-3.6l0.6-3.7l0.7-3.8l0.8-3.9l0.9-4  l0.9-4.1l1-4.2l1.1-4.3l1.1-4.3l1.2-4.4l1.2-4.5l2.6-9.1l2.7-9.2l2.8-9.3l2.8-9.3l3.1,9.7l-7.7-5.9l-7.7-5.9l-7.6-5.9l-7.4-5.9  l-3.6-2.9l-3.5-2.9l-3.4-2.9l-3.4-2.8l-3.3-2.8l-3.2-2.8l-3.1-2.8l-2.9-2.7l-2.8-2.7l-2.7-2.7l-2.5-2.6l-2.4-2.6l-2.2-2.6l-2.1-2.6  l-1-1.3l-0.9-1.3l-0.9-1.3L5.9,272l-0.8-1.3l-0.8-1.3l-0.7-1.3l-0.7-1.3l-0.6-1.3l-0.6-1.3l-0.5-1.4l-0.2-0.7l-0.2-0.7l-0.2-0.7  L0.5,260l-0.1-0.7l-0.1-0.7l-0.1-0.7L0.1,257L0,256.3l0-0.8l0-0.8l0-0.8l0.1-0.8l0.1-0.8l0.1-0.8l0.2-0.8l0.2-0.8l0.2-0.8l0.3-0.8  l0.3-0.7l0.3-0.7l0.4-0.7l0.4-0.7l0.4-0.7l0.4-0.6l0.4-0.6l0.5-0.6l0.5-0.6l0.5-0.6l0.5-0.5l0.5-0.5l0.5-0.5l0.6-0.5l0.6-0.5  l1.2-0.9l1.2-0.8l1.2-0.8l1.3-0.7l1.3-0.7l1.3-0.6l1.4-0.6l1.4-0.6l1.4-0.5l1.5-0.5l1.5-0.5l1.5-0.5l3.2-0.8l3.3-0.8l3.5-0.7  l3.6-0.6l3.7-0.6l3.9-0.5l4-0.5l4.1-0.4l4.2-0.4l4.3-0.3l4.4-0.3l4.5-0.3l4.5-0.2l4.6-0.2l9.4-0.4l9.6-0.3l9.7-0.3l9.7-0.2l-8.3,6  l3.3-9.2l3.3-9.1l3.3-9l3.3-8.8l1.7-4.3l1.7-4.2l1.7-4.2l1.7-4.1l1.7-4l1.7-3.9l1.7-3.8l1.7-3.6l1.7-3.5l1.7-3.4l1.7-3.2l1.7-3.1  l1.8-2.9l1.8-2.8l0.9-1.3l0.9-1.3l0.9-1.2l1-1.2l1-1.2l1-1.1l1-1.1l1-1l1.1-1l1.1-0.9l1.1-0.9l0.6-0.4l0.6-0.4l0.6-0.4l0.6-0.4  l0.6-0.4l0.7-0.3l0.7-0.3l0.7-0.3l0.7-0.3l0.7-0.3l0.7-0.2l0.7-0.2l0.8-0.2l0.8-0.1l0.8-0.1l0.8-0.1l0.8,0l0.8,0l0.8,0l0.8,0.1  l0.8,0.1l0.8,0.1l0.8,0.2l0.8,0.2l0.7,0.2l0.7,0.2l0.7,0.3l0.7,0.3l0.7,0.3l0.7,0.3l0.7,0.3l0.6,0.4l0.6,0.4l0.6,0.4l1.2,0.8  l1.1,0.9l1.1,0.9l1.1,1l1,1l1,1.1l1,1.1l1,1.2l0.9,1.2l0.9,1.3l0.9,1.3l0.9,1.3l1.8,2.8l1.8,2.9l1.7,3.1l1.7,3.2l1.7,3.4l1.7,3.5  l1.7,3.6l1.7,3.8l1.7,3.9l1.6,4l1.6,4.1l1.6,4.2l1.6,4.3l1.6,4.3l3.3,8.8l3.2,9l3.2,9.1l3.2,9.2l-8.2-6l9.7,0.3l9.7,0.3l9.6,0.3  l9.4,0.4l4.6,0.2l4.5,0.3l4.5,0.3l4.4,0.3l4.3,0.4l4.2,0.4l4.1,0.4l4,0.5l3.9,0.5l3.7,0.6l3.6,0.6l3.5,0.7l3.3,0.8l3.2,0.9l1.5,0.5  l1.5,0.5l1.5,0.5l1.4,0.5l1.4,0.6l1.4,0.6l1.3,0.6l1.3,0.7l1.3,0.7l1.2,0.8l1.2,0.8l0.6,0.4l0.6,0.4l0.6,0.5l0.6,0.5l0.5,0.5  l0.5,0.5l0.5,0.5l0.5,0.6l0.5,0.6l0.5,0.6l0.4,0.6l0.4,0.6l0.4,0.7l0.4,0.7l0.4,0.7l0.3,0.7l0.3,0.7l0.3,0.8l0.2,0.8l0.2,0.8  l0.2,0.8l0.1,0.8l0.1,0.8l0.1,0.8l0,0.8l0,0.8l0,0.8l-0.1,0.8l-0.1,0.7l-0.1,0.7l-0.1,0.7l-0.1,0.7l-0.2,0.7l-0.2,0.7l-0.4,1.4  l-0.5,1.4l-0.6,1.3l-0.6,1.3l-0.7,1.3l-0.7,1.3l-0.8,1.3l-0.8,1.3l-0.9,1.3l-0.9,1.3l-0.9,1.3l-1,1.3l-2.1,2.6l-2.3,2.6l-2.4,2.6  l-2.6,2.6l-2.7,2.7l-2.8,2.7l-2.9,2.7l-3.1,2.7l-3.2,2.8l-3.3,2.8l-3.4,2.8l-3.5,2.8l-3.5,2.9l-3.6,2.9l-7.4,5.8l-7.6,5.9l-7.7,5.9  l-7.7,5.9l3.2-9.7l2.7,9.4l2.7,9.3l2.6,9.2l2.5,9.1l1.2,4.5l1.2,4.4l1.1,4.3l1,4.3l1,4.2l0.9,4.1l0.8,4l0.8,3.9l0.7,3.8l0.6,3.7  l0.5,3.6l0.4,3.5l0.3,3.4l0.2,3.3l0,1.6l0,1.6l0,1.6l-0.1,1.5l-0.1,1.5l-0.1,1.5l-0.2,1.5l-0.2,1.4l-0.3,1.4l-0.3,1.4l-0.4,1.4  l-0.2,0.7l-0.2,0.7l-0.3,0.7l-0.3,0.7l-0.3,0.7l-0.3,0.7l-0.4,0.7l-0.4,0.6l-0.4,0.6l-0.4,0.6l-0.5,0.6l-0.5,0.6l-0.5,0.6l-0.5,0.6  l-0.6,0.6l-0.6,0.5l-0.6,0.5l-0.6,0.5L264.6,435z" fill="#89915B"/><path d="M308,481.4c9.4-6.8-0.4-40.4-10.3-73.9c27.8-21.2,55.6-42.4,52.1-53.5c-3.6-11.1-38.5-12.1-73.5-13.1  c-11.6-33-23.1-66-34.8-66c-11.7,0-23.4,32.9-35.1,65.9c-35,0.8-69.9,1.6-73.6,12.7c-3.6,11.1,24.1,32.4,51.8,53.8  c-10,33.5-20.1,67-10.7,73.9c9.4,6.9,38.3-12.9,67.1-32.6C269.8,468.3,298.5,488.2,308,481.4z" fill="#FFD700"/><path d="M303.3,474.9L303.3,474.9l-0.1,0.1l-0.1,0l0,0l0,0l0,0l0,0l0,0l0,0l0,0l0,0l0,0l0-0.1l0-0.1l0-0.1l0-0.1  l0-0.1l0-0.1l0-0.1l0-0.2l0.1-0.4l0.1-0.4l0.1-0.5l0.1-0.5l0.1-0.6l0-0.6l0-0.7l0-0.7l0-0.8l0-0.8l-0.1-1.7l-0.2-1.9l-0.2-2  l-0.3-2.1l-0.4-2.2l-0.4-2.3l-0.5-2.4l-0.5-2.5l-0.6-2.6l-0.6-2.7l-1.4-5.6l-1.5-5.8l-1.7-6l-1.7-6.1l-3.7-12.5  c-0.9-3.2,0.2-6.7,2.9-8.7l10.3-7.9l5-3.9l4.9-3.8l4.7-3.8l4.4-3.7l2.1-1.8l2-1.8l1.9-1.7l1.8-1.7l1.7-1.6l1.6-1.6l1.5-1.5l1.4-1.5  l1.2-1.4l1.1-1.3l1-1.3l0.4-0.6l0.4-0.6l0.3-0.5l0.3-0.5l0.3-0.5l0.2-0.4l0.2-0.4l0.1-0.3l0.1-0.3l0-0.1l0-0.1l0-0.1l0-0.1l0-0.1  l0-0.1l0,0l0,0l0,0v0v0l0,0l0,0l0,0.1l0,0.1l0,0.1l0,0.1l0,0.1l0,0l0,0.1l0,0.1l0,0.1l0,0.1l0,0l0,0l0,0l0,0l0,0l0,0l0,0l0,0l0,0  l-0.1,0l-0.1-0.1l-0.1-0.1l-0.1-0.1l-0.1-0.1l-0.1-0.1l-0.1-0.1l-0.3-0.2l-0.4-0.2l-0.4-0.2l-0.5-0.2l-0.5-0.2l-0.6-0.2l-0.6-0.2  l-0.7-0.2l-0.7-0.2l-0.8-0.2l-1.7-0.4l-1.8-0.4l-2-0.4l-2.1-0.4l-2.2-0.4l-2.4-0.3l-2.5-0.3l-2.6-0.3l-2.7-0.3l-2.7-0.2l-5.7-0.4  l-6-0.3l-6.2-0.3l-6.4-0.2l-13-0.4c-3.3-0.1-6.3-2.2-7.4-5.4l-4.3-12.3l-2.2-6l-2.1-5.8l-2.1-5.6l-2.1-5.3l-1.1-2.5l-1-2.5l-1-2.4  l-1-2.3l-1-2.1l-1-2l-1-1.9l-1-1.8l-1-1.6l-0.9-1.5l-0.9-1.3l-0.4-0.6l-0.4-0.5l-0.4-0.5l-0.4-0.4l-0.4-0.4l-0.3-0.3l-0.3-0.3  l-0.3-0.2l-0.2-0.2l-0.1-0.1l-0.1-0.1l-0.1-0.1l-0.1,0l-0.1,0l0,0l0,0l0,0l0,0l0,0l0,0l0,0l0,0l0.1,0l0.1,0l0.1,0l0.1,0l0.1,0l0,0  l0.1,0l0.1,0l0.1,0l0.1,0l0.1,0l0,0l0,0l0,0l0,0l0,0l0,0l0,0l0,0l-0.1,0l-0.1,0l-0.1,0.1l-0.1,0.1l-0.1,0.1l-0.1,0.1l-0.1,0.1  l-0.3,0.2l-0.3,0.3l-0.3,0.3l-0.4,0.4l-0.4,0.4l-0.4,0.5l-0.4,0.5l-0.4,0.6l-0.4,0.6l-0.5,0.7l-0.9,1.5l-1,1.6l-1,1.8l-1,1.9l-1,2  l-1,2.1l-1,2.3l-1.1,2.4l-1.1,2.5l-1.1,2.5l-2.1,5.3l-2.2,5.6l-2.2,5.8l-2.2,6l-4.4,12.3c-1.1,3.2-4.1,5.3-7.4,5.4l-13,0.3l-6.4,0.2  l-6.2,0.2l-6,0.3l-5.7,0.4l-2.7,0.2l-2.7,0.2l-2.6,0.3l-2.5,0.3l-2.4,0.3l-2.2,0.3l-2.1,0.4l-2,0.4l-1.8,0.4l-1.7,0.4l-1.5,0.5  l-0.7,0.2l-0.6,0.2l-0.6,0.2l-0.5,0.2l-0.5,0.2l-0.4,0.2l-0.4,0.2l-0.3,0.2l-0.3,0.2l-0.1,0.1l-0.1,0.1l-0.1,0.1l-0.1,0.1l-0.1,0  l0,0l0,0l0,0l0,0l0,0l0,0l0,0l0,0l0,0l0-0.1l0-0.1l0-0.1l0-0.1l0-0.1l0-0.1l0-0.1l0-0.1l0-0.1l0,0l0,0l0,0l0,0l0,0l0,0l0,0l0,0.1  l0,0.1l0,0.1l0,0.1l0,0.1l0,0.1l0,0.1l0.1,0.2l0.1,0.3l0.2,0.4l0.2,0.4l0.3,0.5l0.3,0.5l0.3,0.5l0.4,0.6l0.4,0.6l0.5,0.6l0.5,0.6  l1.1,1.3l1.2,1.4l1.4,1.5l1.5,1.5l1.6,1.6l1.7,1.6l1.8,1.7l1.9,1.7l2,1.8l2.1,1.8l4.4,3.7l4.6,3.8l4.9,3.9l5,3.9l10.3,8  c2.7,2,3.8,5.5,2.8,8.7l-3.7,12.5l-1.8,6.1l-1.7,6l-1.6,5.8l-1.4,5.6l-0.6,2.7l-0.6,2.6l-0.5,2.5l-0.5,2.4l-0.4,2.3l-0.4,2.2  l-0.3,2.1l-0.2,2l-0.2,1.9l-0.1,1.7l0,1.6l0,0.7l0,0.7l0,0.6l0.1,0.6l0.1,0.5l0.1,0.5l0.1,0.4l0.1,0.4l0.1,0.3l0,0.1l0,0.1l0,0.1  l0,0.1l0,0.1l0,0.1l0,0l0,0l0,0l0,0l0,0l0,0l0,0l0,0l0,0l-0.1,0l-0.1,0l-0.1-0.1l-0.1,0l-0.1,0l-0.1,0l-0.1,0l0,0l0,0l0,0l0,0l0,0  l0,0l0,0l0,0l0.1,0l0.1,0l0.1,0l0.1,0l0.1,0l0.1,0l0.1,0l0.2,0l0.4,0l0.4,0l0.5-0.1l0.5-0.1l0.6-0.1l0.6-0.2l0.7-0.2l0.7-0.2  l0.7-0.2l0.8-0.3l1.6-0.6l1.7-0.7l1.8-0.8l1.9-0.9l2-1l2.1-1.1l2.2-1.2l2.2-1.3l2.3-1.4l2.4-1.4l4.9-3l5-3.3l5.2-3.4l5.3-3.6  l10.8-7.3c2.8-1.9,6.4-1.9,9.2,0l10.7,7.4l5.3,3.6l5.2,3.4l5,3.3l4.8,3.1l2.3,1.4l2.3,1.4l2.2,1.3l2.2,1.2l2.1,1.1l2,1l1.9,0.9  l1.8,0.8l1.7,0.7l1.6,0.6l1.5,0.5l0.7,0.2l0.7,0.2l0.6,0.2l0.6,0.1l0.5,0.1l0.5,0.1l0.4,0.1l0.4,0l0.3,0h0.1l0.1,0l0.1,0l0.1,0  l0.1,0l0.1,0l0,0l0,0l0,0l0,0l0,0l0,0l0,0l0,0l-0.1,0l-0.1,0L303.3,474.9L303.3,474.9l9.5,13.1l-0.5,0.4l-0.5,0.3l-0.5,0.3l-0.5,0.3  l-0.6,0.3l-0.6,0.2l-0.6,0.2l-0.6,0.2l-0.6,0.2l-0.6,0.1l-0.6,0.1l-0.6,0.1l-0.6,0.1l-0.6,0.1l-0.5,0l-0.5,0l-0.5,0h-0.5l-1.1,0  l-1.1-0.1l-1.1-0.1l-1-0.2l-1-0.2l-1-0.2l-1-0.3l-1-0.3l-1-0.3l-2.1-0.7l-2.1-0.8l-2.2-0.9l-2.2-1l-2.3-1.1l-2.3-1.2l-2.3-1.3  l-2.4-1.3l-2.4-1.4l-2.5-1.5l-2.5-1.5l-5.1-3.2l-5.2-3.4l-5.3-3.5l-5.3-3.6l-10.8-7.4l9.2,0l-10.8,7.4l-5.4,3.6l-5.3,3.5l-5.2,3.4  l-5.1,3.2l-2.5,1.5l-2.5,1.5l-2.4,1.4l-2.4,1.3l-2.3,1.3l-2.3,1.2l-2.3,1.1l-2.2,1l-2.2,0.9l-2.1,0.8l-1.1,0.4l-1.1,0.3l-1,0.3  l-1,0.3l-1,0.3l-1,0.2l-1,0.2l-1,0.2l-1.1,0.1l-1.1,0.1l-0.5,0l-0.5,0l-0.5,0l-0.5,0l-0.5,0l-0.5,0l-0.6-0.1l-0.6-0.1l-0.6-0.1  l-0.6-0.1l-0.6-0.1l-0.6-0.2l-0.6-0.2l-0.6-0.2l-0.6-0.2l-0.6-0.3l-0.5-0.3l-0.5-0.3l-0.5-0.3l-0.5-0.4l-0.5-0.4l-0.5-0.4l-0.5-0.4  l-0.4-0.4l-0.4-0.4l-0.4-0.5l-0.4-0.5l-0.3-0.5l-0.3-0.5l-0.3-0.5l-0.3-0.5l-0.3-0.5l-0.2-0.5l-0.2-0.5l-0.2-0.5l-0.2-0.5l-0.2-0.5  l-0.2-0.5l-0.3-1l-0.2-1l-0.2-1l-0.2-1l-0.1-1.1l-0.1-1.1l-0.1-1.1l0-1.1l0-1.1l0-2.2l0.1-2.3l0.2-2.4l0.3-2.4l0.4-2.5l0.4-2.6  l0.5-2.6l0.5-2.7l0.6-2.7l0.6-2.8l0.7-2.8l1.5-5.8l1.6-6l1.7-6.1l1.8-6.2l3.7-12.6l2.8,8.7l-10.4-8l-5.1-4l-5-4l-4.8-3.9l-4.6-3.9  l-2.2-1.9l-2.1-1.9l-2.1-1.9l-2-1.9l-1.9-1.8l-1.8-1.8l-1.7-1.8l-1.6-1.8l-1.5-1.8l-1.4-1.8l-0.7-0.9l-0.7-0.9l-0.6-0.9l-0.6-0.9  l-0.6-0.9l-0.5-0.9l-0.5-0.9l-0.5-0.9l-0.4-1l-0.4-1l-0.2-0.5l-0.2-0.5l-0.2-0.5l-0.2-0.5l-0.1-0.5l-0.1-0.5l-0.1-0.5l-0.1-0.6  l-0.1-0.6l-0.1-0.6l0-0.6l0-0.6l0-0.6l0-0.6l0-0.6l0.1-0.6l0.1-0.6l0.1-0.6l0.2-0.6l0.2-0.6l0.2-0.6l0.2-0.6l0.3-0.6l0.3-0.5  l0.3-0.5l0.3-0.5l0.3-0.5l0.3-0.5l0.4-0.5l0.4-0.4l0.4-0.4l0.4-0.4l0.4-0.4l0.4-0.4l0.4-0.4l0.4-0.3l0.4-0.3l0.4-0.3l0.9-0.6  l0.9-0.6l0.9-0.5l0.9-0.5l1-0.4l1-0.4l1-0.4l1-0.4l1-0.4l2.1-0.6l2.2-0.6l2.3-0.5l2.4-0.5l2.5-0.4l2.6-0.4l2.6-0.4l2.7-0.3l2.8-0.3  l2.8-0.3l2.9-0.2l6-0.4l6.2-0.3l6.3-0.2l6.5-0.2l13.1-0.3l-7.4,5.4l4.4-12.3l2.2-6.1l2.2-6l2.2-5.8l2.3-5.6l1.1-2.7l1.1-2.6l1.1-2.6  l1.2-2.5l1.2-2.4l1.2-2.3l1.2-2.2l1.2-2.1l1.2-2l1.3-1.9l0.6-0.9l0.6-0.9l0.7-0.9l0.7-0.9l0.7-0.8l0.7-0.8l0.7-0.8l0.8-0.7l0.8-0.7  l0.8-0.7l0.4-0.3l0.4-0.3l0.4-0.3l0.4-0.3l0.5-0.3l0.5-0.3l0.5-0.3l0.5-0.3l0.5-0.2l0.5-0.2l0.5-0.2l0.6-0.2l0.6-0.2l0.6-0.2  l0.6-0.1l0.6-0.1l0.6-0.1l0.6-0.1l0.6,0l0.6,0l0.6,0l0.6,0l0.6,0.1l0.6,0.1l0.6,0.1l0.6,0.1l0.6,0.2l0.6,0.2l0.5,0.2l0.5,0.2  l0.5,0.2l0.5,0.2l0.5,0.3l0.5,0.3l0.5,0.3l0.5,0.3l0.4,0.3l0.4,0.3l0.8,0.7l0.8,0.7l0.8,0.7l0.7,0.8l0.7,0.8l0.7,0.8l0.7,0.8  l0.7,0.9l0.7,0.9l1.3,1.8l1.2,1.9l1.2,2l1.2,2.1l1.2,2.2l1.2,2.3l1.1,2.4l1.1,2.5l1.1,2.6l1.1,2.6l1.1,2.7l2.2,5.6l2.2,5.8l2.2,6  l2.2,6.1l4.4,12.4l-7.4-5.4l13.1,0.4l6.5,0.2l6.3,0.3l6.2,0.3l6,0.4l2.9,0.2l2.8,0.3l2.8,0.3l2.7,0.3l2.6,0.4l2.6,0.4l2.5,0.4  l2.4,0.5l2.3,0.5l2.2,0.6l1.1,0.3l1.1,0.3l1,0.4l1,0.4l1,0.4l1,0.4l1,0.5l0.9,0.5l0.9,0.5l0.9,0.6l0.4,0.3l0.4,0.3l0.4,0.3l0.4,0.3  l0.4,0.3l0.4,0.4l0.4,0.4l0.4,0.4l0.4,0.4l0.4,0.4l0.4,0.4l0.4,0.5l0.3,0.5l0.3,0.5l0.3,0.5l0.3,0.5l0.3,0.6l0.3,0.6l0.2,0.6  l0.2,0.6l0.2,0.6l0.2,0.6l0.1,0.6l0.1,0.6l0.1,0.6l0,0.6l0,0.6v0.6l0,0.6l0,0.6L358,358l-0.1,0.6l-0.1,0.6l-0.1,0.5l-0.1,0.5  l-0.1,0.5l-0.2,0.5l-0.2,0.5l-0.4,1l-0.4,1l-0.4,1l-0.5,0.9l-0.5,0.9l-0.5,0.9l-0.6,0.9l-0.6,0.9l-0.6,0.9l-1.4,1.8l-1.5,1.8  l-1.6,1.8l-1.7,1.8l-1.8,1.8l-1.8,1.8l-1.9,1.8l-2,1.8l-2.1,1.9l-2.2,1.9l-2.2,1.9l-4.6,3.8l-4.8,3.9l-5,3.9l-5.1,4l-10.4,8l2.9-8.7  l3.7,12.6l1.8,6.2l1.7,6.1l1.6,6l1.5,5.8l0.7,2.8l0.6,2.8l0.6,2.7l0.5,2.7l0.5,2.6l0.4,2.6l0.3,2.5l0.3,2.4l0.2,2.4l0.1,2.3l0,1.1  l0,1.1l0,1.1l0,1.1l-0.1,1.1l-0.1,1.1l-0.1,1.1l-0.2,1l-0.2,1l-0.3,1l-0.1,0.5l-0.2,0.5l-0.2,0.5l-0.2,0.5L318,481l-0.2,0.5  l-0.2,0.5l-0.3,0.5l-0.3,0.5l-0.3,0.5l-0.3,0.5l-0.3,0.5l-0.4,0.5l-0.4,0.5l-0.4,0.5l-0.4,0.4l-0.4,0.4l-0.5,0.4l-0.5,0.4l-0.5,0.4  L303.3,474.9z" fill="#968339"/><path d="M364.5,132.9c1-2.9,2.1-5.8,3.1-8.6l-0.5-0.8c0.4-0.3,0.8-0.7,1.2-1c4.5-12.1,9.3-23.6,15.7-32.5  c8.2-11.5,18.9-18.6,31.5-20.8c12.5-2.1,26.8,0.7,38.7,6.9c11.9,6.2,21.3,15.8,27.9,30.5c6.6,14.7,10.5,34.5,12.7,50.7  c2.3,16.2,2.9,28.6,4.6,49.8c1.6,21.1,4.2,50.9,6.8,80.7c-6.4-18.5-12.7-37-18.8-53.3c-5.1-13.7-9.9-25.9-15.1-37.9  c-1.9,5.1-3.9,10.1-5.8,14.7c-6.4,15-12.2,26.1-21.6,45.1c-9.5,19-22.5,45.9-35.6,72.8c4-19.2,8.1-38.3,11.3-55.4  c3.2-17.1,5.5-32.1,7.4-47.7c1.8-15.6,3.1-31.8,2.5-45c-0.6-13.2-3.1-23.3-7.9-28.9c-4.8-5.6-11.9-6.6-19.1-7  c-7.3-0.4-14.7-0.3-22.1-0.2l-3.8-5.7L364.5,132.9z"/><path d="M213.5,86c8.2,10.1,14.5,24,20.7,38.1c1,1,2.1,2.1,3.1,3.1l-16.2,19.9c-7.4-0.9-14.8-1.7-22-2c-7.3-0.3-14.4,0-19.7,5  c-5.3,5.1-8.9,14.9-10.8,27.9s-2.3,29.3-2.1,45c0.2,15.7,1,30.8,2.5,48.2c1.4,17.3,3.5,36.8,5.5,56.3c-10.3-28.1-20.5-56.2-28-76  c-7.4-19.6-12-31.1-16.7-46.4c-3.5,10.1-6.8,20.4-10.2,31.7c-5,16.6-10.1,35.5-15.3,54.4c0.7-29.9,1.3-59.8,1.6-81  c0.3-21.2,0.2-33.7,1.4-50c1.2-16.3,3.8-36.3,9.5-51.4c5.7-15.1,14.5-25.2,25.9-32.2c11.5-7,25.6-10.7,38.2-9.4  C193.4,68.7,204.6,75.1,213.5,86z"/><path d="M390.8,218.3c-7,21-15,36.6-26.9,48.6  c-5.9,6-18.8,14.3-29.5,18.1c-32.3,11.3-41.2,9-61.2,7c-15.4-1.5-52.5-14.5-59.9-20.3c-4.6-3.7-6.7-10.9-5.8-16.7  c0.8-5.6,4.2-10.5,6.1-15.8c2.1-5.9,1.7-12.5,1-18.8c-1.1-10.7-6.3-20.7-11.8-29.9c-3.6-6.1-7.5-15.4-7.5-27.6  c0.3-23.6,8.5-39.4,22.6-51.3c9.9-8.4,23.4-11.5,35.8-15.6c21.9-7.3,46.9-10.1,69.1-3.9c8.3,2.3,15.7,7.1,23.1,11.4  c12.9,7.6,25.7,16.7,34.6,28.8c2.6,3.6,3.9,7.9,5.4,12.1c3.2,9,6.6,18.1,7.3,27.6C394.2,185.3,396.2,200.3,390.8,218.3z" fill="#FDE7D6" stroke="#904052" stroke-linejoin="round" stroke-width="9"/><path d="M200.9,177.6c11.6,0.2,23.8,2.8,33.7,7.9c5.5,2.8,9.6,7.8,15.8,9.6c0.8,0.2,1.8,0,2.6-0.2c0.8-0.2,1.8-0.6,2.1-1.2  c2.1-4-2.9-9.3-7.3-11.6c-9.6-5.1-22.5-3-33.9-4"/><path d="M337.1,185c-10-3.4-21.3-4.6-31.7-2.4c-5.8,1.2-11.1,5-17,4.9c-0.8,0-1.5-0.5-2.1-1.1c-0.6-0.5-1.3-1.1-1.4-1.9  c-0.4-4.8,5.9-8.7,10.6-9.7c10.1-2.2,20.4,4,30.4,6.6"/><ellipse cx="224.4" cy="250.2" fill="#EF8F9C" rx="7.2" ry="13.5" stroke="#AD4D64" stroke-linejoin="round" stroke-width="3" transform="matrix(2.556375e-002 -0.9997 0.9997 2.556375e-002 -31.3781 468.1252)"/><path d="M352.3,199.3c1.1,0,2.3,0.3,3.4,0.1c1.2-0.3,2.4-1,3.5-1.6c1.2-0.7,2.1-3,3.5-2.5c1.1,0.4-0.5,2.3-0.9,3.4  c-0.5,1.2-1.2,2.3-1.8,3.4"/><path d="M338.7,193.8c3.5,0.1,7.3-0.5,10.3-2.3c1.2-0.7,2.5-1.4,3.5-2.5c0.9-0.9,0.7-4,1.8-3.4c1.3,0.7,0.1,2.9-0.1,4.3  c-0.2,1.2-0.6,2.3-0.9,3.4"/><path d="M300,61.5c-8.3-6.2-16.7-12.4-21.8-19.7s-6.9-15.8-6-21.7c0.9-5.9,4.7-9.3,13.4-12.6c8.7-3.3,22.4-6.5,36.3-7.2  c13.9-0.7,28,0.9,42.2,2.6c-9.5,1.7-18.9,3.4-28.5,5.9c-9.6,2.5-19.4,5.9-24.7,10.8c-5.3,4.9-6.1,11.2-6.4,16.7  c-0.2,5.5,0.1,10.1,1.2,14.2c1.1,4.2,2.8,7.9,4.6,11.6"/><path d="M295,53.7c5.7,2.4,11,6,17.1,7.6c1.4,0.4,2.9,0.2,4.3,0.1c1.5-0.1,2.9-0.8,4.3-0.9  c13.2-1.2,27-1.3,39.8,2c13.3,3.5,26.9,11,33.9,22.2c4.9,7.9,9.3,16.6,10.1,25.7c1.3,13.6-4.3,27-6.4,40.6l0.2,0.6l0.9,3.1l0.9,3.2  l0.8,3.2l0.7,3.2l0.4,2.1l0.2,1.1l0.4,3.2l0.3,3.2l0.3,3.2l0.2,3.2l0.1,3.2l0.1,3.2l0,3.2l-0.1,3.2l-0.1,3.2l0,0.3l-0.5,2.9  l-0.6,3.2l-0.6,3.1l-0.7,3.1l-0.8,3.1l-0.9,3l-0.9,3l-1,3l-1.1,2.9l-0.3,0.8l-1,2l-1.4,2.8l-1.5,2.7l-1.6,2.7l-1.6,2.6l-0.8,1.3  l-0.9,1.3l-0.9,1.2l-0.7,1l-0.2,0.2l-1,1.2l-1,1.1l-1,1.1l-1,1.1l-1.1,1.1l-1.1,1l-1.1,1l-1.1,1l-1.1,1l-0.7,0.6l-0.5,0.3l-1.2,0.9  l-1.2,0.8l-1.3,0.8l-1.3,0.8l-1.3,0.8l-1.3,0.7l0.5-1.3l0.5-1.3l0.5-1.3l0.4-1.3l0.4-1.3l0.4-1.3l0.1-0.5l0.2-0.8l0.4-1.3l0.3-1.3  l0.1-0.4l0,0l-1.2,2l-1.2,2l-1.2,2l-1.3,1.9l-1.3,1.9l-0.8,1.1l-0.6,0.7l-1.5,1.8l-1.5,1.7l-1.5,1.7l-1.6,1.7l-1.6,1.6l-1.6,1.6  l-0.8,0.8l-0.9,0.7l-1.8,1.4l-1.8,1.4l-1.8,1.4l-1.8,1.3l0.7-2l0.7-2l0.6-2l0.6-2.1l0.3-1l0.3-1l0.5-2l0.5-2l0.4-2l0.4-2l0.4-2  l0.3-2.1l0.1-0.7l0.3-1.3l0.4-2l0.4-2l0.4-2l0.3-2l0.3-2l0.3-2l0.2-2l0.2-2l0.1-0.9l-0.3-1.1l-1.2-3.6l-1.3-3.6l-0.6-1.5l-0.5-2.1  l-1-3.6l-1.1-3.5l-1.2-3.5l-1.1-2.9l-0.2-0.5l-1.3-3.4l-1.3-3.4l-1.4-3.4l-1.5-3.3l-1.6-3.3l-1.6-3.2l-0.1-0.2l-1.1-3.1l-1.2-3.3  l-1.3-3.3l-1.4-3.2l-1.4-3.2l-1.5-3.1l-1.6-3.1l-0.4-0.7l-1.1-2.5l-0.7-1.6l-0.7-1.6l-0.8-1.5l-0.8-1.5l-0.8-1.5l-0.8-1.5l-0.8-1.5  l-0.8-1.5L319,148l-0.9-1.5l-0.9-1.4l-0.9-1.4l-0.1-0.2l-0.7-1.3l-0.8-1.5l-0.8-1.5l-0.8-1.5l-1.7-2.9l-1.7-2.9l-3.3-5.7l-1.6-2.8  l-0.9-1.4l-0.6-1.3l-1.4-2.8l-0.7-1.4l-0.7-1.4l-0.7-1.3l-0.8-1.3l-0.8-1.3l-0.8-1.3l-0.6-0.9l-0.2-0.4l-0.7-1.4l-0.7-1.4l-0.8-1.3  l-0.8-1.3l-0.2-0.2l0.1,1.6l0.2,1.7l0.2,1.8l0.3,1.8l0.3,1.6l0,0.3l0.1,1.9l0.1,1.9l0.3,3.8l0.3,3.8l0.4,3.7l0.3,3.6l0.2,2.8l0,0.7  l-0.5,13.1l-0.2,6.5l-0.1,3.5l-0.3,3l-0.3,3.2l-0.3,3.2l-0.3,3.2l-0.2,3.2l-0.2,3.2l-0.1,3.1l0,0.9l-0.4,2.2l-0.4,3.1l-0.4,3.1  l-0.3,3.1l-0.2,3l-0.1,3l0,1.5l0,1.5l0,0.6l-0.1,0.9l-0.1,1.5l-0.1,1.5l-0.1,1.5l0,1.5l0,1.5l0,1.4l0.3,0.5l0.5,0.7l1.4,2.6l1.9,3.4  l2,3.4l1.5,2.4l0.5,1l1.9,3.5l2,3.5l-3.8-1.6l-3.8-1.7l-1-0.5l-2.2-1.1l0.1,0.9l0.2,1.7l0.2,1.7l0.3,1.7l0.3,1.7l-1.5-1l-1.4-1.1  l-1.4-1.1l-1.4-1.1l-0.8-0.7l-0.5-0.5l-1.3-1.2l-1.3-1.3l-1.3-1.3l-1.2-1.3l-1.2-1.4l-1.2-1.4l-0.8-1l-0.3-0.4l-0.9-1.5l-0.6-1.1  l-0.5-0.4l-1.6-1.3l-1.6-1.3l-1.6-1.4l-1.6-1.4l-0.3-0.3l-0.8-0.3l-2.2-0.8l-2.2-0.9l-1.4-0.6l-0.8-0.4l-2.2-1l-2.2-1l-2.2-1.1  l-2.2-1.1l-2.2-1.2l-0.3-0.2l-1.7-1.2l-1.9-1.4l-1.9-1.5l-1.9-1.5l-1.9-1.5l-1.8-1.6l-1.8-1.6l-1.2-1.1l-0.6-0.6l-1.7-1.7l-1.7-1.7  l-1.7-1.7l-1.7-1.8l-1.6-1.8l-1.6-1.8l-1.6-1.9l-1.5-1.9l-1.5-1.9l-1.5-2l-0.4-0.6l-0.8-1.5l-1.1-2.2l-1-2.2l-1-2.2l-1-2.2l-0.6-1.4  l-0.5-1.4l-0.5-1.4l-0.4-1.4l-0.4-1.4l-0.4-1.4l-0.3-1.4l-0.3-1.4l-0.3-1.4l-0.2-1.4l-0.2-1.4l-0.1-1.2l-0.2,1.1l-0.7,3.7l-0.4,2.3  l-0.3,1.4l-0.9,3.6l-0.8,3.6l-0.8,3.6l-0.7,3.5l-0.6,3.5l-0.5,3.5l-0.2,1.7l-0.2,1.7l0,0.2l-0.3,1.5l-0.4,1.7l-0.3,1.7l-0.3,1.7  l-0.3,1.7l-0.2,1.7l-0.2,1.7l-0.2,1.7l-0.1,1.7l-0.1,1.7l-0.1,1.3l0,1.3l0,1.3l0,1.3l0.1,1.3l0,0.4l0,0.9l0,1.4l0,1.4l0.1,1.4  l0.1,1.4l0.1,1.4l0.1,1.4l0.2,1.4l0.2,1.4l0.2,1.4l0.2,1.4l0.3,1.4l0.1,0.7l0.1,0.8l0.4,3l0.5,3l0.6,3l0.7,3l0.1,0.4l0.5,2.7  l0.6,3.1l0.7,3.1l-2.6-2.1l-2.5-2.2l-2.2-1.9l-0.3-0.3l-2.4-2.4l-2.4-2.4l-2.3-2.5l-2.3-2.6l-0.5-0.6l-0.5-0.8l-0.9-1.4l-0.9-1.4  l-0.9-1.4l-0.9-1.5l-0.8-1.5l-0.8-1.5l-0.8-1.5l-0.8-1.5l-0.7-1.5l-0.7-1.6l-0.7-1.6l-0.3-0.7l-0.4-1l-0.6-1.6l-0.6-1.6l-0.5-1.7  l-0.5-1.7l-0.5-1.7l-0.6-2.1l-0.5-2.1l-0.5-2.1l-0.4-2.1l-0.4-2.1l-0.3-2.1l-0.3-2.1l-0.3-2.1l-0.2-2.1l0-0.1l0.1-2l0.1-2.1l0.1-2.1  l0.3-4.2l0.4-4.1l0.5-4.1l0.6-4.1l0.6-4l0.7-4l0.2-0.9l0.7-2.9l1-3.8l1.9-7.5l1.3-4.8l0.7-2.5l0.7-2.5l0.8-2.5l0.5-1.5l0.4-1.1  l0.7-1.6c-1.9,0.9-3.8,1.8-5.6,2.8c-8.8,4.9-17.8,10-25.2,16.6c-1.3,1.2-2.2,2.7-3.3,4c-1.5,1.7-2.2,4.3-4.4,5  c-1.4,0.4,0.6-2.7,1.2-4c0.6-1.4,1.7-2.6,2.3-4c1.7-4,2.7-8.2,4.6-12.1c5.9-11.6,12.7-23.1,21.3-33C191.4,74.3,209,56.5,231.5,50  C251.7,44.2,275.6,45.5,295,53.7z" stroke="#000000" stroke-width="0"/><path d="M392.5,122.9c9.8,6.2,17.6,15.9,22.8,26.2c8.5,16.5,11.7,40,1.8,55.6c-3.5,5.5-8.2,10.4-13.2,14.6c-1.5,1.3-2.4,4.2-4.4,4.2  c-1.6,0,1.5-2.8,2.2-4.2c0.7-1.4,1.6-2.7,2.2-4.2c3-7.3,3.4-15.6,2.7-23.5c-0.8-9.8-6-18.6-8.9-28c-4.4-14.5-9.9-29.2-19.3-41.1"/><path d="M273.7,86.8c2.1,9.4-0.5,19.5,1.4,28.9c2.1,10.3,9.4,18.8,14.2,28.2c8.3,15.9,20,30.3,33.1,42.5  c7.8,7.3,16.9,14.4,27.4,16.7c2.1,0.5,4.6,2.5,6.4,1.2c1.3-0.9-1.2-3-2-4.3c-1.2-1.9-2.8-3.6-4.1-5.5c-5.9-7.8-11.2-16.1-15.4-25  c-10-21.2-23.1-40.9-33.7-61.8c-5.1-10.1-10.2-21.1-9.9-32.3"/><path d="M292.6,58.4c10.3-9.8,25.7-15.4,39.9-15c11.4,0.3,22.5,9.2,28.4,18.9c1.1,1.8,4,3.6,3.1,5.4c-0.8,1.6-2.7-2.3-4.2-3.3  c-4-2.6-9.2-4.7-13.8-3.6c-10.2,2.5-18.5,10.3-26.1,17.5"/><path d="M348.7,234.5c8.5,0.2,15.3,3.9,15.2,8.3  c-0.1,4.4-7.2,7.8-15.7,7.6c-8.5-0.2-15.3-3.9-15.2-8.3C333.2,237.8,340.2,234.3,348.7,234.5z" fill="#EF8F9C" stroke="#AD4D64" stroke-linejoin="round" stroke-width="3"/><path d="M270.2,259.6l33-10.5c4.1,5.9,8.1,11.8,9.8,16.7  c1.7,5,1.1,9.1-1.8,11.9c-2.8,2.8-7.9,4.4-12.9,3.8c-5-0.6-9.8-3.3-14.5-7.3C279.3,270.2,274.8,264.9,270.2,259.6z" fill="#C12433" stroke="#000000" stroke-linejoin="round" stroke-width="4"/><path d="M277,263.8c3.6,0.9,7.3,1.9,10.5,1.6c3.3-0.3,6.1-1.7,9.7-3.6  c3.6-1.8,7.8-4,12-6.2" fill="none" stroke="#000000" stroke-linejoin="round"/><path d="M291.7,228.8c-0.2-16,24.1-22.4,38.5-20.5c5.6,0.8,11.2,3.2,15.7,7c1,0.8,3,1.2,3,2.5c0,1.1-2-0.6-3-0.9c-1-0.3-2-0.6-3-0.9  c-1-0.3-2-0.7-3-0.9c-6.7-1-13.5-1.3-20.1-0.5c-5.5,0.6-10.7,4.7-14,9.5c-0.7,1.1-1.3,2.4-2.2,3.2c-0.8,0.8-2,0.9-3,1.6  c-1,0.7-1.8,1.9-3,2.4c-0.9,0.4-2,0.2-3-0.1c-2.8-0.8-4.5-5.2-4.5-8.4"/><path d="M211.8,220.5c4.8-0.3,9.2-3.2,14-3.3c7.6-0.1,15.4,0.9,22.8,3.6c3.5,1.3,8.8,4.9,8,8.6c-0.2,1-1.2,1.5-2,2.2  c-0.7,0.6-1.4,1.2-2.2,1.5c-0.8,0.3-1.8,0.3-2.7,0.2c-1.1-0.2-2.2-0.6-3.2-1.2c-2.8-1.5-4.5-4.9-7.3-6.6c-5.4-3.3-12-4.1-18-3.7"/><polygon points="296.5,209.8 296.9,209.5 297,209.3 297.4,209.1 297.6,208.9 298.3,208.5   298.9,208.2 299.8,207.8 300.2,207.6 301.5,207.2 301.6,207.1 303.1,206.6 304.4,206.3 304.7,206.2 305.8,206 305.8,206   306.6,205.8 307.2,205.7 306.7,206 306,206.4 305.9,206.4 305,206.9 304.6,207 303.5,207.5 301.9,208 301.8,208.1 300.5,208.5   300.2,208.6 299.2,208.9 298.6,209.1 297.9,209.4 297.6,209.5 297.2,209.6 297,209.7 " stroke="#000000" stroke-width="0"/><polygon points="241.9,212.9 242.4,212.7 242.8,212.6 243.1,212.5 243.7,212.4 244.3,212.3   244.6,212.3 245.6,212.3 246,212.3 246.5,212.4 247.5,212.5 248.4,212.7 249.2,212.9 249.4,212.9 250.3,213.2 251.2,213.5   252.3,214 253,214.3 253.9,214.8 254.7,215.2 255,215.4 255.7,215.9 256.2,216.3 255.7,216.1 254.8,215.8 254.4,215.6 253.7,215.4   252.7,215 252.1,214.9 250.9,214.4 250,214.1 249.1,213.9 249,213.9 248.2,213.7 247.3,213.5 246.4,213.3 246,213.3 245.5,213.2   244.6,213.1 244.3,213 243.7,213 243.2,213 242.8,212.9 242.5,212.9 " stroke="#000000" stroke-width="0"/><path d="M333.8,346.6c-3.6,3.9-4.6,9.5-6.7,14.4  c-2.4,5.7-5.6,11-8,16.7c-1.3,3.1-1.3,8.1-4.5,9.2c-3.3,1.1-7-3.4-7.9-6.8c-1.6-5.7-1.2-11.9-0.8-17.9c0.2-2.7,0.6-5.5,1-8.2  c0.1-0.8,1.4-2,0.7-2.4c-0.9-0.5-1.9,0.8-2.9,1.1c-0.9,0.3-1.8,0.6-2.8,0.5c-1-0.1-2.1-0.4-3-0.9c-0.8-0.4-1.7-1-2.1-1.9  c-1.1-2.5,0.1-6.2,2.2-7.9c5-4,11.8-5.1,17.7-7.4" fill="#FDE7D6" stroke="#904052" stroke-linejoin="round" stroke-width="9"/><polyline points="375.8,295.7 359.7,322 332.8,357.4 315.6,346.7   309.9,332.1 359.8,283.7 " stroke="#FFFFFF" stroke-linejoin="round" stroke-width="2"/><path d="M100.6,110.1C88,103.5,75.5,96.8,67,89.5c-8.5-7.3-13.1-15.3-13.7-22.8c-0.7-7.5,2.5-14.4,6.8-16.9  c4.3-2.5,9.6-0.7,14.3,2.8C79,56,83,61.1,87,66.1c2.1-8.5,4.3-17.1,8.1-21.9c3.9-4.8,9.5-5.9,14-2.8c4.5,3.1,8,10.3,7.9,18.4  c-0.1,8.1-3.9,17.2-7.2,25.7C106.4,94.1,103.5,102.1,100.6,110.1z" fill="#E33063"/><path d="M89.8,172.5c-9.9-0.2-19.9-0.4-27.5-2.3c-7.7-1.9-13.1-5.5-16-10c-2.9-4.5-3.2-9.9-1.4-12.9  c1.8-3,5.7-3.5,9.7-2.8c4,0.7,8.2,2.6,12.3,4.5c-1.5-6.1-3-12.2-2.2-16.4c0.8-4.3,3.9-6.7,7.7-6.3c3.8,0.5,8.3,3.9,10.9,9.1  c2.6,5.2,3.3,12.1,4,18.6C88.2,160.5,89,166.5,89.8,172.5z" fill="#EC7396"/><polyline fill="#FFFFFF" points="274.4,260.5 302.4,251.5 305.8,256.3 298,260.5 293.8,262.7 289.6,264.1 286.6,264.3 282,264.1   277.2,263.1 "/></svg>