<?xml version="1.0" ?><svg height="40px" version="1.1" viewBox="0 0 295 295" width="40px" xmlns="http://www.w3.org/2000/svg" xmlns:xlink="http://www.w3.org/1999/xlink"><title/><desc/><defs/><g fill="none" fill-rule="evenodd" id="Page-1" stroke="none" stroke-width="1"><g fill-rule="nonzero" id="close"><path d="M147.421,0 C66.133,0 0,66.133 0,147.421 C0,228.709 66.133,294.842 147.421,294.842 C185.708,294.842 221.988,280.233 249.58,253.706 C251.969,251.41 252.044,247.611 249.747,245.223 C247.452,242.835 243.654,242.759 241.264,245.056 C215.919,269.423 182.592,282.842 147.422,282.842 C72.75,282.843 12,222.093 12,147.421 C12,72.749 72.75,12 147.421,12 C222.092,12 282.842,72.75 282.842,147.421 C282.842,164.263 279.79,180.694 273.771,196.256 C272.576,199.347 274.112,202.821 277.203,204.017 C280.295,205.21 283.768,203.676 284.964,200.585 C291.519,183.636 294.843,165.749 294.843,147.42 C294.843,66.133 228.71,0 147.421,0 Z" fill="#000000" id="Shape"/><path d="M167.619,160.134 C165.249,157.815 161.451,157.857 159.134,160.224 C156.816,162.592 156.857,166.391 159.224,168.709 L206.46,214.945 C207.628,216.088 209.143,216.657 210.657,216.657 C212.214,216.657 213.77,216.054 214.945,214.854 C217.263,212.486 217.222,208.687 214.855,206.369 L167.619,160.134 Z" fill="#ffffff" id="Shape"/><path d="M125.178,133.663 C126.349,134.834 127.885,135.42 129.421,135.42 C130.957,135.42 132.492,134.834 133.664,133.663 C136.007,131.32 136.007,127.521 133.664,125.178 L88.428,79.942 C86.085,77.599 82.285,77.599 79.943,79.942 C77.6,82.285 77.6,86.084 79.943,88.427 L125.178,133.663 Z" fill="#ffffff" id="Shape"/><path d="M214.9,79.942 C212.557,77.599 208.757,77.599 206.415,79.942 L79.942,206.415 C77.599,208.758 77.599,212.557 79.942,214.9 C81.113,216.071 82.649,216.657 84.185,216.657 C85.721,216.657 87.256,216.071 88.428,214.9 L214.9,88.428 C217.243,86.084 217.243,82.286 214.9,79.942 Z" fill="#ffffff" id="Shape"/></g></g></svg>